<svg width="268" height="32" viewBox="0 0 268 32" fill="none" xmlns="http://www.w3.org/2000/svg">
<path d="M23.4 9.8L14.12 31H10.2L0.92 9.8H4.92L12.2 26.8L19.64 9.8H23.4ZM39.7903 31.32C36.9903 31.32 34.457 30.7067 32.1903 29.48C29.9503 28.2267 28.1903 26.52 26.9103 24.36C25.6303 22.1733 24.9903 19.72 24.9903 17C24.9903 14.28 25.6303 11.84 26.9103 9.68C28.1903 7.49333 29.9636 5.78667 32.2303 4.56C34.497 3.30667 37.0303 2.68 39.8303 2.68C42.017 2.68 44.017 3.05333 45.8303 3.8C47.6436 4.52 49.1903 5.6 50.4703 7.04L47.8703 9.56C45.7636 7.34667 43.137 6.24 39.9903 6.24C37.9103 6.24 36.0303 6.70667 34.3503 7.64C32.6703 8.57333 31.3503 9.86667 30.3903 11.52C29.457 13.1467 28.9903 14.9733 28.9903 17C28.9903 19.0267 29.457 20.8667 30.3903 22.52C31.3503 24.1467 32.6703 25.4267 34.3503 26.36C36.0303 27.2933 37.9103 27.76 39.9903 27.76C43.1103 27.76 45.737 26.64 47.8703 24.4L50.4703 26.92C49.1903 28.36 47.6303 29.4533 45.7903 30.2C43.977 30.9467 41.977 31.32 39.7903 31.32ZM63.7981 31.24C61.6915 31.24 59.7981 30.7733 58.1181 29.84C56.4381 28.9067 55.1181 27.6267 54.1581 26C53.2248 24.3467 52.7581 22.48 52.7581 20.4C52.7581 18.32 53.2248 16.4667 54.1581 14.84C55.1181 13.1867 56.4381 11.9067 58.1181 11C59.7981 10.0667 61.6915 9.6 63.7981 9.6C65.9048 9.6 67.7848 10.0667 69.4381 11C71.1181 11.9067 72.4248 13.1867 73.3581 14.84C74.3181 16.4667 74.7981 18.32 74.7981 20.4C74.7981 22.48 74.3181 24.3467 73.3581 26C72.4248 27.6267 71.1181 28.9067 69.4381 29.84C67.7848 30.7733 65.9048 31.24 63.7981 31.24ZM63.7981 27.88C65.1581 27.88 66.3715 27.5733 67.4381 26.96C68.5315 26.32 69.3848 25.44 69.9981 24.32C70.6115 23.1733 70.9181 21.8667 70.9181 20.4C70.9181 18.9333 70.6115 17.64 69.9981 16.52C69.3848 15.3733 68.5315 14.4933 67.4381 13.88C66.3715 13.2667 65.1581 12.96 63.7981 12.96C62.4381 12.96 61.2115 13.2667 60.1181 13.88C59.0515 14.4933 58.1981 15.3733 57.5581 16.52C56.9448 17.64 56.6381 18.9333 56.6381 20.4C56.6381 21.8667 56.9448 23.1733 57.5581 24.32C58.1981 25.44 59.0515 26.32 60.1181 26.96C61.2115 27.5733 62.4381 27.88 63.7981 27.88ZM106.629 9.6C109.295 9.6 111.402 10.3733 112.949 11.92C114.522 13.4667 115.309 15.76 115.309 18.8V31H111.469V19.24C111.469 17.1867 110.989 15.64 110.029 14.6C109.095 13.56 107.749 13.04 105.989 13.04C104.042 13.04 102.495 13.6533 101.349 14.88C100.202 16.08 99.6288 17.8133 99.6288 20.08V31H95.7888V19.24C95.7888 17.1867 95.3088 15.64 94.3488 14.6C93.4154 13.56 92.0688 13.04 90.3088 13.04C88.3621 13.04 86.8154 13.6533 85.6688 14.88C84.5221 16.08 83.9488 17.8133 83.9488 20.08V31H80.1088V9.8H83.7888V12.96C84.5621 11.8667 85.5754 11.04 86.8288 10.48C88.0821 9.89333 89.5088 9.6 91.1088 9.6C92.7621 9.6 94.2288 9.93333 95.5088 10.6C96.7888 11.2667 97.7754 12.24 98.4688 13.52C99.2688 12.2933 100.375 11.3333 101.789 10.64C103.229 9.94667 104.842 9.6 106.629 9.6ZM139.197 31.24C137.463 31.24 135.797 31.0133 134.197 30.56C132.597 30.08 131.343 29.48 130.437 28.76L132.037 25.72C132.97 26.3867 134.103 26.92 135.437 27.32C136.77 27.72 138.117 27.92 139.477 27.92C142.837 27.92 144.517 26.96 144.517 25.04C144.517 24.4 144.29 23.8933 143.837 23.52C143.383 23.1467 142.81 22.88 142.117 22.72C141.45 22.5333 140.49 22.3333 139.237 22.12C137.53 21.8533 136.13 21.5467 135.037 21.2C133.97 20.8533 133.05 20.2667 132.277 19.44C131.503 18.6133 131.117 17.4533 131.117 15.96C131.117 14.04 131.917 12.5067 133.517 11.36C135.117 10.1867 137.263 9.6 139.957 9.6C141.37 9.6 142.783 9.77333 144.197 10.12C145.61 10.4667 146.77 10.9333 147.677 11.52L146.037 14.56C144.303 13.44 142.263 12.88 139.917 12.88C138.29 12.88 137.05 13.1467 136.197 13.68C135.343 14.2133 134.917 14.92 134.917 15.8C134.917 16.4933 135.157 17.04 135.637 17.44C136.117 17.84 136.703 18.1333 137.397 18.32C138.117 18.5067 139.117 18.72 140.397 18.96C142.103 19.2533 143.477 19.5733 144.517 19.92C145.583 20.24 146.49 20.8 147.237 21.6C147.983 22.4 148.357 23.52 148.357 24.96C148.357 26.88 147.53 28.4133 145.877 29.56C144.25 30.68 142.023 31.24 139.197 31.24ZM172.316 20.52C172.316 20.8133 172.289 21.2 172.236 21.68H155.036C155.276 23.5467 156.089 25.0533 157.476 26.2C158.889 27.32 160.636 27.88 162.716 27.88C165.249 27.88 167.289 27.0267 168.836 25.32L170.956 27.8C169.996 28.92 168.796 29.7733 167.356 30.36C165.942 30.9467 164.356 31.24 162.596 31.24C160.356 31.24 158.369 30.7867 156.636 29.88C154.902 28.9467 153.556 27.6533 152.596 26C151.662 24.3467 151.196 22.48 151.196 20.4C151.196 18.3467 151.649 16.4933 152.556 14.84C153.489 13.1867 154.756 11.9067 156.356 11C157.982 10.0667 159.809 9.6 161.836 9.6C163.862 9.6 165.662 10.0667 167.236 11C168.836 11.9067 170.076 13.1867 170.956 14.84C171.862 16.4933 172.316 18.3867 172.316 20.52ZM161.836 12.84C159.996 12.84 158.449 13.4 157.196 14.52C155.969 15.64 155.249 17.1067 155.036 18.92H168.636C168.422 17.1333 167.689 15.68 166.436 14.56C165.209 13.4133 163.676 12.84 161.836 12.84ZM181.328 13.36C181.994 12.1333 182.981 11.2 184.288 10.56C185.594 9.92 187.181 9.6 189.048 9.6V13.32C188.834 13.2933 188.541 13.28 188.168 13.28C186.088 13.28 184.448 13.9067 183.248 15.16C182.074 16.3867 181.488 18.1467 181.488 20.44V31H177.648V9.8H181.328V13.36ZM213.4 9.8L204.12 31H200.2L190.92 9.8H194.92L202.2 26.8L209.64 9.8H213.4ZM216.984 9.8H220.824V31H216.984V9.8ZM218.904 5.72C218.157 5.72 217.53 5.48 217.024 5C216.544 4.52 216.304 3.93333 216.304 3.24C216.304 2.54667 216.544 1.96 217.024 1.48C217.53 0.973332 218.157 0.719999 218.904 0.719999C219.65 0.719999 220.264 0.959999 220.744 1.44C221.25 1.89333 221.504 2.46666 221.504 3.16C221.504 3.88 221.25 4.49333 220.744 5C220.264 5.48 219.65 5.72 218.904 5.72ZM234.236 31.24C232.502 31.24 230.836 31.0133 229.236 30.56C227.636 30.08 226.382 29.48 225.476 28.76L227.076 25.72C228.009 26.3867 229.142 26.92 230.476 27.32C231.809 27.72 233.156 27.92 234.516 27.92C237.876 27.92 239.556 26.96 239.556 25.04C239.556 24.4 239.329 23.8933 238.876 23.52C238.422 23.1467 237.849 22.88 237.156 22.72C236.489 22.5333 235.529 22.3333 234.276 22.12C232.569 21.8533 231.169 21.5467 230.076 21.2C229.009 20.8533 228.089 20.2667 227.316 19.44C226.542 18.6133 226.156 17.4533 226.156 15.96C226.156 14.04 226.956 12.5067 228.556 11.36C230.156 10.1867 232.302 9.6 234.996 9.6C236.409 9.6 237.822 9.77333 239.236 10.12C240.649 10.4667 241.809 10.9333 242.716 11.52L241.076 14.56C239.342 13.44 237.302 12.88 234.956 12.88C233.329 12.88 232.089 13.1467 231.236 13.68C230.382 14.2133 229.956 14.92 229.956 15.8C229.956 16.4933 230.196 17.04 230.676 17.44C231.156 17.84 231.742 18.1333 232.436 18.32C233.156 18.5067 234.156 18.72 235.436 18.96C237.142 19.2533 238.516 19.5733 239.556 19.92C240.622 20.24 241.529 20.8 242.276 21.6C243.022 22.4 243.396 23.52 243.396 24.96C243.396 26.88 242.569 28.4133 240.916 29.56C239.289 30.68 237.062 31.24 234.236 31.24ZM267.355 20.52C267.355 20.8133 267.328 21.2 267.275 21.68H250.075C250.315 23.5467 251.128 25.0533 252.515 26.2C253.928 27.32 255.675 27.88 257.755 27.88C260.288 27.88 262.328 27.0267 263.875 25.32L265.995 27.8C265.035 28.92 263.835 29.7733 262.395 30.36C260.981 30.9467 259.395 31.24 257.635 31.24C255.395 31.24 253.408 30.7867 251.675 29.88C249.941 28.9467 248.595 27.6533 247.635 26C246.701 24.3467 246.235 22.48 246.235 20.4C246.235 18.3467 246.688 16.4933 247.595 14.84C248.528 13.1867 249.795 11.9067 251.395 11C253.021 10.0667 254.848 9.6 256.875 9.6C258.901 9.6 260.701 10.0667 262.275 11C263.875 11.9067 265.115 13.1867 265.995 14.84C266.901 16.4933 267.355 18.3867 267.355 20.52ZM256.875 12.84C255.035 12.84 253.488 13.4 252.235 14.52C251.008 15.64 250.288 17.1067 250.075 18.92H263.675C263.461 17.1333 262.728 15.68 261.475 14.56C260.248 13.4133 258.715 12.84 256.875 12.84Z" fill="white"/>
</svg>
